<!DOCTYPE svg PUBLIC "-//W3C//DTD SVG 1.1//EN" "http://www.w3.org/Graphics/SVG/1.1/DTD/svg11.dtd">

<!-- Uploaded to: SVG Repo, www.svgrepo.com, Transformed by: SVG Repo Mixer Tools -->
<svg fill="red" width="64px" height="64px" viewBox="-3.5 0 19 19" xmlns="http://www.w3.org/2000/svg" class="cf-icon-svg">

<g id="SVGRepo_bgCarrier" stroke-width="0"/>

<g id="SVGRepo_tracerCarrier" stroke-linecap="round" stroke-linejoin="round"/>

<g id="SVGRepo_iconCarrier">

<path d="m11.235 10.34-.01.015-2.077 3.599a.913.913 0 0 1-.713.411H3.577a.913.913 0 0 1-.713-.411L.765 10.319a.47.47 0 0 1 .022-.595l.127-.099.019-.015c1.966-1.547 3.204-4.239 3.569-7.405v-.263a.475.475 0 0 1 .944-.072v7.14a1.425 1.425 0 1 0 1.109.008V1.875a.475.475 0 0 1 .945.067v.273c.366 3.177 1.59 5.876 3.57 7.418l.143.112a.47.47 0 0 1 .022.594zm-.727 5.46a.464.464 0 0 0-.463-.462H1.944a.463.463 0 0 0-.462.462v1.142a.463.463 0 0 0 .462.462h8.101a.464.464 0 0 0 .463-.462z"/>

</g>

</svg>