<!DOCTYPE svg PUBLIC "-//W3C//DTD SVG 1.1//EN" "http://www.w3.org/Graphics/SVG/1.1/DTD/svg11.dtd">
<!-- Uploaded to: SVG Repo, www.svgrepo.com, Transformed by: SVG Repo Mixer Tools -->
<svg fill="#000000" version="1.1" id="Capa_1" xmlns="http://www.w3.org/2000/svg" xmlns:xlink="http://www.w3.org/1999/xlink" width="64px" height="64px" viewBox="0 0 30.998 30.998" xml:space="preserve">
<g id="SVGRepo_bgCarrier" stroke-width="0"/>
<g id="SVGRepo_tracerCarrier" stroke-linecap="round" stroke-linejoin="round"/>
<g id="SVGRepo_iconCarrier"> <g> <g> <path d="M18.73,16.686l-1.713-0.205c-0.176-0.654-0.433-1.271-0.763-1.844l1.063-1.354c0.164-0.209,0.145-0.531-0.043-0.718 l-1.766-1.767c-0.187-0.187-0.509-0.206-0.717-0.044l-1.356,1.067c-0.571-0.33-1.188-0.587-1.841-0.761L11.39,9.345 c-0.031-0.262-0.273-0.477-0.537-0.477H8.354c-0.264,0-0.506,0.215-0.537,0.477l-0.206,1.714 c-0.653,0.174-1.271,0.432-1.842,0.762l-1.357-1.065c-0.207-0.163-0.53-0.145-0.716,0.042l-1.767,1.769 c-0.187,0.187-0.206,0.509-0.043,0.717l1.065,1.354c-0.331,0.572-0.586,1.19-0.761,1.844l-1.713,0.205 C0.215,16.718,0,16.959,0,17.225v2.498c0,0.265,0.215,0.506,0.477,0.536l1.714,0.207c0.175,0.651,0.431,1.269,0.761,1.841 l-1.064,1.354c-0.163,0.21-0.144,0.532,0.043,0.719l1.765,1.767c0.186,0.188,0.509,0.207,0.716,0.045l1.357-1.068 c0.571,0.33,1.189,0.588,1.842,0.762L7.817,27.6c0.031,0.262,0.273,0.477,0.537,0.477h2.499c0.264,0,0.506-0.215,0.537-0.477 l0.206-1.715c0.653-0.174,1.271-0.432,1.843-0.762l1.356,1.064c0.208,0.162,0.53,0.145,0.716-0.041l1.767-1.77 c0.187-0.188,0.207-0.51,0.043-0.717l-1.065-1.354c0.331-0.572,0.586-1.19,0.761-1.844l1.715-0.205 c0.263-0.031,0.477-0.271,0.477-0.537v-2.498C19.209,16.957,18.994,16.718,18.73,16.686z M9.605,23.271 c-2.651,0-4.801-2.148-4.801-4.801c0-2.652,2.15-4.802,4.801-4.802c2.652,0,4.801,2.149,4.801,4.802 C14.407,21.123,12.257,23.271,9.605,23.271z"/> <path d="M30.641,8.804L29.35,8.651c-0.132-0.492-0.324-0.959-0.574-1.39l0.803-1.02c0.123-0.155,0.107-0.399-0.033-0.54 l-1.33-1.329c-0.14-0.142-0.383-0.156-0.54-0.033l-1.021,0.803c-0.43-0.249-0.896-0.441-1.385-0.571l-0.156-1.29 c-0.022-0.198-0.205-0.359-0.402-0.359H22.83c-0.199,0-0.381,0.161-0.404,0.359l-0.154,1.29c-0.492,0.13-0.957,0.323-1.388,0.572 l-1.021-0.802c-0.156-0.122-0.399-0.107-0.539,0.031l-1.331,1.332c-0.142,0.141-0.155,0.383-0.032,0.539l0.803,1.021 c-0.25,0.43-0.441,0.896-0.574,1.388L16.9,8.806c-0.198,0.023-0.359,0.206-0.359,0.405v1.881c0,0.197,0.162,0.381,0.359,0.402 l1.289,0.157c0.133,0.49,0.326,0.955,0.574,1.386l-0.803,1.02c-0.122,0.156-0.107,0.4,0.033,0.54l1.328,1.329 c0.141,0.143,0.383,0.156,0.539,0.033l1.021-0.804c0.43,0.249,0.896,0.442,1.387,0.572l0.155,1.292 c0.022,0.195,0.206,0.356,0.404,0.356h1.881c0.198,0,0.38-0.161,0.403-0.356l0.154-1.292c0.492-0.13,0.957-0.323,1.387-0.572 l1.021,0.802c0.157,0.123,0.399,0.109,0.54-0.031l1.33-1.332c0.141-0.139,0.155-0.382,0.032-0.538l-0.802-1.021 c0.25-0.429,0.44-0.895,0.572-1.386l1.291-0.154c0.198-0.025,0.359-0.205,0.359-0.405V9.21 C30.999,9.009,30.837,8.829,30.641,8.804z M23.771,13.764c-1.998,0-3.615-1.618-3.615-3.614c0-1.997,1.619-3.614,3.615-3.614 c1.994,0,3.613,1.617,3.613,3.614C27.384,12.145,25.766,13.764,23.771,13.764z"/> </g> </g> </g>
</svg>