<!DOCTYPE svg PUBLIC "-//W3C//DTD SVG 1.1//EN" "http://www.w3.org/Graphics/SVG/1.1/DTD/svg11.dtd">
<!-- Uploaded to: SVG Repo, www.svgrepo.com, Transformed by: SVG Repo Mixer Tools -->
<svg fill="#000000" height="64px" width="64px" version="1.1" id="Capa_1" xmlns="http://www.w3.org/2000/svg" xmlns:xlink="http://www.w3.org/1999/xlink" viewBox="0 0 424.095 424.095" xml:space="preserve">
<g id="SVGRepo_bgCarrier" stroke-width="0"/>
<g id="SVGRepo_tracerCarrier" stroke-linecap="round" stroke-linejoin="round"/>
<g id="SVGRepo_iconCarrier"> <g> <path d="M258.192,154.89c0-2.761-2.238-5-5-5H103.861c-1.316-12.518-9.291-23.399-21.1-28.323c-2.552-1.063-5.477,0.142-6.54,2.69 c-1.063,2.549,0.143,5.477,2.69,6.539c8.069,3.365,13.635,10.634,14.893,19.093H72.729V39.834 C88.752,38.316,101.623,25.839,103.755,10h86.012c2.762,0,5-2.239,5-5s-2.238-5-5-5H67.729c-2.762,0-5,2.239-5,5v149.89 c0,2.761,2.238,5,5,5h185.463C255.954,159.89,258.192,157.651,258.192,154.89z M93.631,10c-1.976,10.314-10.4,18.359-20.902,19.768 V10H93.631z"/> <path d="M356.366,0h-149.22c-2.762,0-5,2.239-5,5s2.238,5,5,5h114.133c1.623,12.128,9.517,22.58,21.051,27.364 c0.627,0.26,1.275,0.383,1.914,0.383c1.961,0,3.822-1.162,4.62-3.086c1.059-2.551-0.151-5.476-2.702-6.534 C338.385,24.901,332.94,18.052,331.408,10h19.958v109.175c-3.366,0.408-6.635,1.297-9.759,2.676 c-2.526,1.116-3.669,4.068-2.553,6.594c0.825,1.869,2.656,2.981,4.576,2.981c0.675,0,1.36-0.138,2.018-0.428 c1.84-0.813,3.753-1.383,5.718-1.722v20.614h-20.117c0.673-4.466,2.545-8.698,5.473-12.181c1.776-2.114,1.503-5.268-0.611-7.044 c-2.115-1.776-5.269-1.503-7.045,0.611c-4.441,5.285-7.181,11.789-7.908,18.615h-50.781c-2.762,0-5,2.239-5,5c0,2.761,2.238,5,5,5 h85.989c2.762,0,5-2.239,5-5V5C361.366,2.239,359.127,0,356.366,0z"/> <path d="M212.047,17.749c-19.74,0-37.477,13.532-46.288,35.316c-1.036,2.56,0.2,5.475,2.76,6.51 c0.614,0.249,1.249,0.366,1.873,0.366c1.977,0,3.851-1.181,4.637-3.126c7.252-17.929,21.437-29.066,37.019-29.066 c13.136,0,25.256,7.801,33.252,21.403c1.399,2.38,4.463,3.178,6.845,1.777c2.38-1.399,3.176-4.464,1.776-6.844 C244.226,27.594,228.573,17.749,212.047,17.749z"/> <path d="M166.747,66.306c-2.737-0.385-5.264,1.518-5.651,4.25c-0.516,3.65-0.777,7.394-0.777,11.126 c0,35.253,23.206,63.933,51.729,63.933c28.523,0,51.729-28.68,51.729-63.933c0-0.877-0.015-1.749-0.043-2.617 c-0.088-2.76-2.368-4.892-5.159-4.836c-2.76,0.089-4.925,2.399-4.835,5.159c0.024,0.761,0.037,1.525,0.037,2.294 c0,29.739-18.72,53.933-41.73,53.933c-23.01,0-41.729-24.194-41.729-53.933c0-3.266,0.229-6.538,0.68-9.726 C171.383,69.222,169.481,66.692,166.747,66.306z"/> <path d="M260.332,58.658c-0.821-2.637-3.629-4.104-6.26-3.287c-2.637,0.821-4.108,3.624-3.287,6.261 c0.349,1.12,0.67,2.265,0.957,3.403c0.57,2.269,2.607,3.781,4.845,3.781c0.404,0,0.815-0.049,1.225-0.152 c2.678-0.674,4.302-3.391,3.628-6.069C261.108,61.277,260.735,59.953,260.332,58.658z"/> <path d="M212.777,104.278c-2.612,0-4.737,2.125-4.737,4.736v4.321c-6.218-1.255-12.879-5.125-14.596-11.331 c-0.049-0.195-0.119-0.683-0.195-1.202c-0.359-2.457-2.406-4.241-4.894-4.241c-1.359,0.034-2.646,0.643-3.531,1.672 c-0.885,1.03-1.296,2.394-1.126,3.742c0.172,1.356,0.245,1.763,0.293,1.98c2.438,11.172,13.682,17.511,24.049,18.979v2.263 c0,2.468,1.87,4.588,4.254,4.827c0.162,0.017,0.323,0.024,0.482,0.024c1.266,0,2.455-0.493,3.349-1.387 c0.895-0.895,1.388-2.084,1.388-3.35v-2.368c7.506-0.978,13.861-3.938,18.421-8.588c4.285-4.37,6.645-9.891,6.645-15.544 c0-1.58-0.184-3.114-0.616-5.133c-2.986-13.563-15.608-15.393-24.45-16.384V50.106c4.194,0.735,7.935,2.548,10.368,5.041 c1.494,1.65,2.519,3.69,3.03,5.969c0.288,2.316,2.254,4.064,4.575,4.064c0.298,0,0.6-0.029,0.894-0.086l0.226-0.043 c2.36-0.45,3.971-2.593,3.746-4.999l-0.067-0.583c-1.489-7.758-8.345-17.262-22.771-18.944v-1.555c0-2.468-1.87-4.588-4.257-4.828 c-2.831-0.282-5.216,1.942-5.216,4.713v1.733c-8.184,1.106-15.233,4.813-19.446,10.259c-3.111,4.108-4.729,9.748-4.322,15.123 c1.651,14.756,13.392,18.471,23.769,19.91v9.797c0,2.612,2.125,4.737,4.737,4.737s4.737-2.125,4.737-4.737v-8.742 c8.599,1.106,13.833,3.021,15.154,8.868c0.224,0.967,0.332,1.951,0.332,3.008c0,8.803-8.098,13.279-15.486,14.57v-4.369 C217.514,106.403,215.389,104.278,212.777,104.278z M208.04,76.314c-9.81-1.54-13.566-4.516-14.217-11.053 c-0.139-2.483,0.154-5.999,2.368-8.68c2.359-3.167,6.637-5.469,11.849-6.406V76.314z"/> <path d="M321.53,263.604H102.565c-6.747,0-12.236,5.489-12.236,12.236v95.209c0,2.761,2.238,5,5,5c2.762,0,5-2.239,5-5v-33.893 h146.748c2.762,0,5-2.239,5-5c0-2.761-2.238-5-5-5H100.329v-20.021h34.083c2.762,0,5-2.239,5-5c0-2.761-2.238-5-5-5h-34.083V275.84 c0-1.233,1.003-2.236,2.236-2.236H321.53c1.233,0,2.236,1.003,2.236,2.236v21.296H148.72c-2.762,0-5,2.239-5,5c0,2.761,2.238,5,5,5 h175.046v20.021h-40.723c-2.762,0-5,2.239-5,5c0,2.761,2.238,5,5,5h40.723v74.701c0,1.233-1.003,2.236-2.236,2.236h-21.179 c-2.762,0-5,2.239-5,5c0,2.761,2.238,5,5,5h21.179c6.747,0,12.236-5.489,12.236-12.236V275.84 C333.766,269.093,328.277,263.604,321.53,263.604z"/> <path d="M282.376,414.095H102.565c-1.233,0-2.236-1.003-2.236-2.236v-24.205c0-2.761-2.238-5-5-5c-2.762,0-5,2.239-5,5v24.205 c0,6.747,5.489,12.236,12.236,12.236h179.812c2.762,0,5-2.239,5-5C287.376,416.333,285.138,414.095,282.376,414.095z"/> <path d="M267.412,337.157c2.762,0,5-2.239,5-5c0-2.761-2.238-5-5-5h-5.132c-2.762,0-5,2.239-5,5c0,2.761,2.238,5,5,5H267.412z"/> <path d="M131.339,365.598c2.762,0,5-2.239,5-5c0-2.761-2.238-5-5-5h-16.985c-2.762,0-5,2.239-5,5c0,2.761,2.238,5,5,5H131.339z"/> <path d="M163.365,365.598c2.762,0,5-2.239,5-5c0-2.761-2.238-5-5-5h-16.985c-2.762,0-5,2.239-5,5c0,2.761,2.238,5,5,5H163.365z"/> <path d="M195.389,365.598c2.762,0,5-2.239,5-5c0-2.761-2.238-5-5-5h-16.985c-2.762,0-5,2.239-5,5c0,2.761,2.238,5,5,5H195.389z"/> <path d="M227.415,365.598c2.762,0,5-2.239,5-5c0-2.761-2.238-5-5-5h-16.985c-2.762,0-5,2.239-5,5c0,2.761,2.238,5,5,5H227.415z"/> <path d="M223.38,171.055h-22.667c-2.762,0-5,2.239-5,5v32.645h-20.679c-2.022,0-3.846,1.218-4.619,3.087 c-0.774,1.869-0.347,4.019,1.084,5.449l37.013,37.013c0.976,0.976,2.256,1.464,3.535,1.464c1.279,0,2.56-0.488,3.535-1.464 l37.013-37.013c1.431-1.43,1.858-3.581,1.084-5.449c-0.773-1.868-2.597-3.087-4.619-3.087h-20.68v-32.645 C228.38,173.294,226.142,171.055,223.38,171.055z M236.989,218.699l-24.941,24.941l-24.941-24.941h13.607c2.762,0,5-2.239,5-5 v-32.645h12.667v32.645c0,2.761,2.238,5,5,5H236.989z"/> </g> </g>
</svg>